<svg xmlns="http://www.w3.org/2000/svg" width="80" height="32"><defs><filter id="a" color-interpolation-filters="sRGB"><feColorMatrix values="1 0 0 0 0 0 1 0 0 0 0 0 1 0 0 0 0 0 5 -1" result="colormatrix"/><feComposite in2="colormatrix" operator="arithmetic" k2=".03" result="composite"/></filter></defs><path d="M46.583 21.547c-.117.797-1.226.854-1.693.797s-1.985.456-2.451.513c-.467.057-2.627.513-2.743.798s-1.342.74-1.984.74-2.16.684-2.977.399c-.817-.285-1.583-4.586-1.605-4.928s-.876-1.687-.941-2.093c-.066-.406-.591-2.307-.569-2.692s.657-1.217 1.007-1.645 1.576-.684 1.839-.769c.263-.085 1.204-.691 1.787-.862s1.342-.627 1.284-.797c-.059-.171 1.109-.684 1.634-.57s2.335-.854 3.269-.797c0 0 .292-.171 1.226.513s.934 1.88 1.226 2.563c.292.684.817 1.595 1.167 2.064s-.409 2.436 0 2.892c.409.456.642 3.076.525 3.873zm9.879-3.304c-.482-.256-1.62-.043-2.145.171s-1.839 1.495-3.021 1.41c-1.182-.085-1.051-1.623-.876-1.965s-.394-2.563-.394-3.033c0-.47-1.138-2.905-1.007-3.631s-.919-1.666-.832-2.435c.088-.769.7-1.709 1.094-1.923s1.401-.897 1.445-1.538c.044-.641-.394-1.538-.919-1.538s-1.401.726-2.057.726c-.657 0-1.182-.47-1.532-1.965S45.08.044 44.117.001c-.963-.043-2.933 2.179-2.933 3.161s.744 1.88.657 2.222c-.088.342-.525 1.453-1.094 1.495s-2.101.47-2.057.684c.044.214-1.576.726-1.97.726s-1.882.47-2.32.47c-.438 0-1.401 1.196-2.057 1.153s-2.411-.941-2.67-.854c-.498.167-2.67 1.794-3.196 2.35s-2.145 3.332-1.62 3.845c.525.513 2.13.299 2.356.384s.577 1.025.533 1.794c-.044.769.263.94.482.94s.394.769.438.94c.044.171.438 1.324.438 1.709 0 .29.408.676.467.726.141.12.292 1.281.292 1.495s.204.428.467.642c.263.214.306 1.965 0 2.264s-1.401.897-1.882.983c-.482.085-1.007-.684-1.663-.641s-1.488 1.367-1.839 1.794c-.35.427-1.832 2.392-1.594 2.649S24.553 32 25.603 32c1.051 0 2.495-.94 2.933-.94s1.785-.555 2.009-.513c.224.043.749-.513 1.012-.513s.744.641.919.983c.175.342.306.983 1.226.983s.219-1.495.7-1.538c.482-.043.744.171 1.051.214s1.182-.812 1.488-1.068c.306-.256.832-1.068 1.313-1.154s1.488-.94 1.882-.983c.394-.043 1.809-.541 2.16-.541s1.284-.684 1.605-.655c.321.029 1.372-.541 1.956-.541s.934 1.168.934 1.823.029 1.253.38 1.225c.35-.029.788-.427.934-.399s.525.456.876.513.788-1.709.7-2.279c-.088-.569.38-1.476.642-1.592s.467-.999.788-1.028c.321-.029 1.153-.712 1.459-.627s1.401-.384 1.882-.812c.482-.427 2.014-1.923 2.014-2.478s.482-1.581 0-1.837z" filter="url(#a)"/></svg>