<svg width="80" height="21" xmlns="http://www.w3.org/2000/svg">
 <title>kirby-logo</title>

 <g>
  <title>background</title>
  <rect fill="none" id="canvas_background" height="23" width="82" y="-1" x="-1"/>
 </g>
 <g>
  <title>Layer 1</title>
  <g id="svg_3">
   <path id="svg_1" d="m29.2498,5.727078l-0.022,10.558l3.354,0l0,-10.511s0.153,-0.382 0.468,-0.382c0.315,0 0.504,0.382 0.504,0.382l0,10.512l3.01,0l0,-10.94s0.027,-2.231 -1.997,-2.231s-1.754,0.845 -2.267,0.845s-0.599,-0.845 -1.835,-0.845c-1.193,0 -1.251,0.749 -1.718,0.749s-0.603,-0.749 -0.603,-0.749l-3.283,0l0,13.125l3.418,0l0,-10.512s0.153,-0.382 0.468,-0.382c0.315,0 0.504,0.382 0.504,0.382l0,10.512l-0.001,-10.513zm20.453,10.576l0,-10.512s-0.189,-0.382 -0.504,-0.382c-0.315,0 -0.468,0.382 -0.468,0.382l0,10.512l-3.418,0l0,-13.125l3.283,0s0.091,0.662 0.56,0.662c0.51,0 0.525,-0.662 1.719,-0.662c1.236,0 2.073,1.169 2.073,1.423l0.066,1.237l0,10.511l-3.332,0l0.022,-10.558l-0.001,10.512zm-8.011,-2.013s-0.135,0.302 -0.513,0.302s-0.513,-0.378 -0.513,-0.378l0,-8.474s0.115,-0.396 0.513,-0.396c0.398,0 0.513,0.369 0.513,0.369l0,8.577zm-0.513,-11.176c-2.834,0.045 -3.562,1.839 -3.562,2.379l0,5.912l-0.011,2.668c0,0.54 0.729,2.399 3.562,2.444s3.454,-1.788 3.454,-2.136l0.011,-2.76l0,-6.306c0,-0.348 -0.621,-2.246 -3.454,-2.201zm35.453,5.487l0,-2.692s-0.189,-0.382 -0.503,-0.382c-0.315,0 -0.468,0.382 -0.468,0.382l0,10.512l-3.418,0l0,-13.125l3.283,0s0.091,0.662 0.56,0.662c0.468,0 0.525,-0.662 1.719,-0.662c1.236,0 2.072,1.169 2.072,1.423l0.067,1.237l0,2.672l-3.311,-0.027l-0.001,0zm-22.931,-5.305l2.861,0l0,13.054l-2.861,0l0,-13.054zm0,-2.989l0,2.357l2.861,0l0,-2.357l-2.861,0zm5.02,0.467l0,2.522l-1.457,0l0,2.049l1.457,0l0.022,8.999s0.008,0.881 0.378,1.274c0.396,0.419 1.188,0.567 1.188,0.567l3.297,0.004l0,-2.19l-1.163,0.015s-0.321,0.026 -0.564,-0.206c-0.116,-0.111 -0.119,-0.439 -0.119,-0.439l-0.016,-1.015l0,-7.071l1.673,0l0,-1.985l-1.646,0l0,-2.522l-3.05,0l0,-0.002zm9.699,13.624s-0.135,0.302 -0.513,0.302s-0.513,-0.378 -0.513,-0.378l0,-8.474s0.115,-0.396 0.513,-0.396c0.398,0 0.513,0.369 0.513,0.369l0,8.577zm-0.513,-11.176c-2.834,0.045 -3.562,1.839 -3.562,2.379l0,5.912l-0.011,2.668c0,0.54 0.729,2.399 3.562,2.444s3.454,-1.788 3.454,-2.136l0.011,-2.76l0,-6.306c0,-0.348 -0.621,-2.246 -3.454,-2.201z" fill="#fff"/>
   <path id="svg_2" d="m14.2808,14.089078c-0.072,0.504 -0.756,0.54 -1.043,0.504s-1.224,0.288 -1.511,0.324c-0.288,0.036 -1.619,0.324 -1.692,0.504s-0.827,0.468 -1.223,0.468c-0.396,0 -1.332,0.432 -1.835,0.252s-0.976,-2.897 -0.99,-3.113c-0.013,-0.216 -0.54,-1.066 -0.58,-1.322s-0.365,-1.457 -0.351,-1.7s0.405,-0.769 0.621,-1.039c0.216,-0.27 0.972,-0.432 1.133,-0.486s0.742,-0.436 1.102,-0.544c0.36,-0.108 0.828,-0.396 0.792,-0.504s0.683,-0.432 1.007,-0.36s1.44,-0.54 2.015,-0.504c0,0 0.18,-0.108 0.756,0.324s0.575,1.187 0.756,1.619c0.18,0.432 0.503,1.007 0.719,1.304s-0.252,1.539 0,1.827c0.252,0.288 0.396,1.943 0.324,2.447l0,-0.001zm6.09,-2.088c-0.297,-0.162 -0.999,-0.027 -1.322,0.108s-1.134,0.945 -1.862,0.891s-0.648,-1.026 -0.54,-1.241s-0.243,-1.619 -0.243,-1.916s-0.702,-1.835 -0.621,-2.294s-0.567,-1.053 -0.513,-1.538s0.432,-1.08 0.675,-1.214s0.864,-0.567 0.891,-0.972s-0.243,-0.972 -0.567,-0.972s-0.864,0.459 -1.268,0.459s-0.729,-0.297 -0.945,-1.241s-0.702,-1.565 -1.295,-1.592s-1.808,1.376 -1.808,1.997s0.459,1.187 0.405,1.403s-0.324,0.918 -0.675,0.945s-1.295,0.297 -1.268,0.432s-0.972,0.459 -1.214,0.459s-1.16,0.297 -1.43,0.297s-0.864,0.756 -1.268,0.729s-1.486,-0.595 -1.646,-0.54c-0.307,0.106 -1.646,1.133 -1.97,1.484s-1.322,2.105 -0.999,2.429s1.313,0.189 1.453,0.243c0.14,0.054 0.356,0.648 0.329,1.133s0.162,0.594 0.297,0.594s0.243,0.486 0.27,0.594s0.27,0.837 0.27,1.08c0,0.183 0.251,0.427 0.288,0.459c0.087,0.076 0.18,0.809 0.18,0.944s0.126,0.27 0.288,0.405s0.189,1.241 0,1.43s-0.864,0.567 -1.16,0.621s-0.621,-0.432 -1.026,-0.405s-0.918,0.864 -1.133,1.134s-1.129,1.511 -0.983,1.673c0.146,0.162 0.74,0.675 1.388,0.675s1.538,-0.594 1.808,-0.594s1.1,-0.351 1.238,-0.324c0.138,0.027 0.462,-0.324 0.624,-0.324s0.459,0.405 0.567,0.621s0.189,0.621 0.756,0.621s0.135,-0.945 0.432,-0.972s0.459,0.108 0.648,0.135s0.729,-0.513 0.918,-0.675s0.513,-0.675 0.81,-0.729s0.918,-0.594 1.161,-0.621s1.116,-0.342 1.331,-0.342s0.792,-0.432 0.989,-0.414c0.198,0.018 0.846,-0.342 1.206,-0.342s0.576,0.738 0.576,1.151s0.018,0.792 0.234,0.774c0.216,-0.018 0.486,-0.27 0.576,-0.252s0.324,0.288 0.54,0.324s0.486,-1.08 0.432,-1.439c-0.054,-0.36 0.234,-0.932 0.396,-1.006s0.288,-0.631 0.486,-0.649c0.198,-0.018 0.71,-0.45 0.899,-0.396s0.864,-0.243 1.16,-0.513s1.241,-1.214 1.241,-1.565s0.297,-0.999 0,-1.16l-0.006,-0.002z" fill="#0054a8"/>
  </g>
 </g>
</svg>
