<svg xmlns="http://www.w3.org/2000/svg" width="80" height="21">
  <path fill="none" d="M-1-1h82v23H-1z"/>
  <g>
    <path fill="#fff" d="M29.25 5.727l-.022 10.558h3.354V5.775s.153-.383.468-.383c.315 0 .504.382.504.382v10.512h3.01V5.346s.027-2.23-1.997-2.23-1.754.844-2.267.844-.6-.845-1.835-.845c-1.193 0-1.251.75-1.718.75s-.603-.75-.603-.75H24.86V16.24h3.418V5.728s.153-.382.468-.382c.315 0 .504.382.504.382V16.24L29.25 5.727zm20.453 10.576V5.791s-.19-.382-.504-.382c-.315 0-.468.382-.468.382v10.512h-3.418V3.178h3.283s.09.662.56.662c.51 0 .525-.662 1.719-.662 1.236 0 2.073 1.17 2.073 1.423l.066 1.237V16.35h-3.332l.022-10.558-.001 10.512zm-8.011-2.013s-.135.302-.513.302-.513-.378-.513-.378V5.74s.115-.396.513-.396.513.37.513.37v8.576zm-.513-11.176c-2.834.045-3.562 1.84-3.562 2.38v5.911l-.011 2.668c0 .54.729 2.4 3.562 2.444s3.454-1.788 3.454-2.136l.01-2.76V5.315c0-.348-.62-2.246-3.453-2.2zm35.453 5.487V5.91s-.19-.382-.503-.382c-.315 0-.468.382-.468.382v10.512h-3.418V3.296h3.283s.09.662.56.662c.468 0 .525-.662 1.719-.662 1.236 0 2.072 1.17 2.072 1.423l.067 1.237v2.672l-3.311-.027h-.001zM53.7 3.296h2.86V16.35h-2.86V3.296zm0-2.989v2.357h2.86V.307h-2.86zm5.02.467v2.522h-1.457v2.05h1.457l.022 8.998s.008.881.378 1.274c.396.42 1.188.567 1.188.567l3.297.004V14l-1.163.015s-.321.026-.564-.206c-.116-.11-.12-.439-.12-.439l-.015-1.015v-7.07h1.673V3.297H61.77V.776h-3.05V.774zm9.699 13.624s-.135.302-.513.302-.513-.378-.513-.378V5.848s.115-.396.513-.396.513.37.513.37v8.576zm-.513-11.176c-2.834.045-3.562 1.84-3.562 2.38v5.911l-.011 2.668c0 .54.729 2.4 3.562 2.444s3.454-1.788 3.454-2.136l.01-2.76V5.423c0-.348-.62-2.246-3.453-2.2z"/>
    <path fill="#0054a8" d="M14.28 14.09c-.071.503-.755.54-1.042.503s-1.224.288-1.511.324c-.288.036-1.62.324-1.692.504s-.827.468-1.223.468c-.396 0-1.332.432-1.835.252s-.976-2.897-.99-3.113c-.013-.216-.54-1.066-.58-1.322s-.365-1.457-.351-1.7.405-.769.62-1.039c.217-.27.973-.432 1.134-.486s.742-.436 1.102-.544c.36-.108.828-.396.792-.504s.683-.432 1.007-.36 1.44-.54 2.015-.504c0 0 .18-.108.756.324s.575 1.187.756 1.62c.18.431.503 1.006.719 1.303s-.252 1.54 0 1.827c.252.288.396 1.943.324 2.447zM20.37 12c-.296-.162-.998-.027-1.321.108s-1.134.945-1.862.891-.648-1.026-.54-1.24-.243-1.62-.243-1.917-.702-1.835-.621-2.294-.567-1.053-.513-1.538.432-1.08.675-1.214.864-.567.89-.972-.242-.972-.566-.972-.864.46-1.268.46-.73-.298-.945-1.242S13.354.506 12.76.48s-1.808 1.376-1.808 1.997.459 1.187.405 1.403-.324.918-.675.945-1.295.297-1.268.432-.972.46-1.214.46-1.16.296-1.43.296-.864.756-1.268.73-1.486-.596-1.646-.54c-.307.105-1.646 1.132-1.97 1.483s-1.322 2.105-1 2.43 1.314.188 1.454.242c.14.054.356.648.329 1.133s.162.594.297.594.243.486.27.594.27.837.27 1.08c0 .183.25.427.288.46.087.075.18.808.18.943s.126.27.288.405.189 1.241 0 1.43-.864.567-1.16.621-.621-.432-1.026-.405-.918.864-1.133 1.134-1.13 1.511-.983 1.673c.146.162.74.675 1.388.675s1.538-.594 1.808-.594 1.1-.35 1.238-.324c.138.027.462-.324.624-.324s.459.405.567.621.189.621.756.621.135-.945.432-.972.459.108.648.135.729-.513.918-.675.513-.675.81-.729.918-.594 1.16-.62 1.117-.343 1.332-.343.792-.432.989-.414c.198.018.846-.342 1.206-.342s.576.738.576 1.151.018.792.234.774c.216-.018.486-.27.576-.252s.324.288.54.324.486-1.08.432-1.439c-.054-.36.234-.932.396-1.006s.288-.63.486-.649c.198-.018.71-.45.899-.396s.864-.243 1.16-.513 1.24-1.214 1.24-1.565.298-.999 0-1.16l-.005-.002z"/>
  </g>
</svg>
