<?xml version="1.0" standalone="no"?>
<!DOCTYPE svg PUBLIC "-//W3C//DTD SVG 20010904//EN"
 "http://www.w3.org/TR/2001/REC-SVG-20010904/DTD/svg10.dtd">
<svg version="1.0" xmlns="http://www.w3.org/2000/svg"
 width="700.000000pt" height="700.000000pt" viewBox="0 0 700.000000 700.000000"
 preserveAspectRatio="xMidYMid meet">
<metadata>
Created by potrace 1.11, written by Peter Selinger 2001-2013
</metadata>
<g transform="translate(0.000000,700.000000) scale(0.100000,-0.100000)"
fill="#000000" stroke="none">
<path d="M4218 6183 c-145 -67 -352 -303 -399 -455 -23 -74 4 -205 75 -359 29
-61 26 -89 -16 -179 -56 -117 -95 -153 -178 -164 -106 -14 -297 -81 -305 -107
-12 -38 -174 -100 -343 -130 -64 -11 -120 -22 -123 -24 -3 -2 -16 -6 -30 -8
-13 -3 -51 -12 -84 -20 -33 -8 -82 -18 -109 -22 -54 -7 -73 -17 -161 -86 -182
-140 -184 -140 -456 -35 -81 31 -159 58 -175 62 -32 6 -104 -33 -204 -110 -30
-23 -67 -49 -81 -58 -14 -9 -32 -23 -40 -30 -8 -7 -45 -38 -84 -69 -120 -96
-178 -161 -246 -275 -150 -250 -219 -453 -173 -505 43 -48 124 -66 323 -70 78
-2 88 -8 115 -73 27 -64 42 -146 44 -235 3 -102 15 -130 66 -156 22 -12 43
-32 50 -50 21 -50 96 -317 102 -365 8 -60 25 -100 62 -141 35 -40 49 -87 63
-205 10 -95 23 -125 68 -168 40 -38 51 -85 51 -221 0 -78 -1 -92 -15 -146 -12
-46 -136 -130 -274 -184 -73 -28 -86 -26 -198 39 -157 92 -201 68 -416 -221
-180 -240 -296 -424 -297 -469 0 -19 91 -95 171 -141 97 -56 224 -70 333 -38
58 17 144 51 255 101 29 14 85 31 125 40 39 8 120 30 180 49 59 19 118 35 131
35 12 0 48 17 81 38 32 21 67 41 77 45 39 15 100 -41 158 -143 72 -127 86
-146 125 -165 39 -18 105 -24 137 -12 26 10 38 52 42 145 2 45 8 89 15 97 14
17 50 14 141 -11 l66 -17 59 39 c32 21 125 105 205 185 94 93 157 149 175 153
27 7 95 43 189 101 77 48 112 64 176 80 35 9 108 29 161 45 53 16 116 32 140
35 24 4 93 31 153 61 61 30 119 54 128 54 10 0 78 20 151 45 74 25 151 45 171
45 86 0 150 -122 161 -305 8 -128 22 -193 44 -205 21 -11 47 -4 126 37 l51 27
49 -35 c74 -53 100 -62 120 -41 23 22 50 86 64 147 7 28 14 59 17 70 2 11 8
72 13 135 11 158 35 223 104 289 20 19 36 38 36 42 0 4 16 34 37 66 34 55 43
61 155 118 77 39 132 60 156 61 66 2 194 55 272 113 91 67 297 295 342 377 14
27 29 72 32 99 4 28 9 57 11 65 21 77 24 183 6 204 -22 27 -81 39 -160 33
-130 -9 -203 -33 -305 -101 -134 -90 -156 -103 -215 -132 -165 -80 -285 -64
-336 43 -25 51 -31 141 -15 226 13 66 12 80 -29 330 -35 209 -52 287 -86 387
-85 246 -106 325 -114 426 -7 95 -11 104 -71 227 -57 115 -64 135 -63 185 1
69 30 148 84 232 49 76 48 76 128 129 78 53 163 135 185 178 34 67 23 161 -29
248 -52 90 -102 95 -256 22 -117 -55 -169 -70 -222 -63 -103 15 -171 122 -232
366 -44 174 -143 321 -249 369 -67 31 -108 32 -168 4z m-92 -1653 c158 -84
200 -149 280 -435 21 -75 104 -245 172 -351 37 -57 51 -90 53 -119 2 -42 -10
-165 -17 -177 -2 -4 -7 -53 -10 -110 -6 -97 -5 -107 19 -158 29 -60 53 -154
62 -240 4 -30 8 -60 10 -67 2 -7 7 -80 11 -162 8 -174 -2 -227 -48 -266 -42
-35 -119 -55 -215 -55 -63 0 -118 -9 -235 -39 -84 -22 -202 -49 -263 -60 -123
-24 -304 -75 -350 -99 -16 -8 -39 -25 -50 -38 -34 -39 -197 -101 -285 -109
-70 -7 -107 -14 -225 -43 -197 -50 -298 -50 -337 0 -57 71 -134 291 -172 493
-2 11 -11 49 -19 85 -14 59 -25 119 -32 177 -8 60 -23 100 -86 232 -69 142
-84 189 -134 411 -46 208 -47 240 -9 314 27 53 115 178 146 209 25 25 131 73
218 97 41 12 122 46 179 77 57 30 147 72 199 94 115 46 199 100 212 134 17 45
156 97 265 100 55 2 110 15 255 63 208 68 203 67 286 70 52 2 70 -2 120 -28z"/>
</g>
</svg>
