<?xml version="1.0" encoding="utf-8"?>
<!-- Generator: Adobe Illustrator 24.2.3, SVG Export Plug-In . SVG Version: 6.00 Build 0)  -->
<svg version="1.1" id="Layer_1" xmlns="http://www.w3.org/2000/svg" xmlns:xlink="http://www.w3.org/1999/xlink" x="0px" y="0px"
	 viewBox="0 0 250 250" style="enable-background:new 0 0 250 250;" xml:space="preserve">
<style type="text/css">
	.st0{fill:none;stroke:#070606;stroke-width:4.8;stroke-linecap:round;stroke-linejoin:round;stroke-miterlimit:10;}
</style>
<g id="XMLID_1092_">
	<circle id="XMLID_1109_" class="st0" cx="73" cy="127.8" r="44"/>
	<circle id="XMLID_1108_" class="st0" cx="73" cy="127.8" r="13.3"/>
	<line id="XMLID_1107_" class="st0" x1="73" y1="114.4" x2="66.3" y2="84.3"/>
	<line id="XMLID_1106_" class="st0" x1="61.5" y1="121.1" x2="32" y2="111.9"/>
	<line id="XMLID_1105_" class="st0" x1="61.5" y1="134.4" x2="38.8" y2="155.3"/>
	<line id="XMLID_1104_" class="st0" x1="73" y1="141.1" x2="79.8" y2="171.2"/>
	<line id="XMLID_1103_" class="st0" x1="84.6" y1="134.4" x2="114.1" y2="143.6"/>
	<line id="XMLID_1102_" class="st0" x1="84.6" y1="121.1" x2="107.3" y2="100.2"/>
	<circle id="XMLID_1101_" class="st0" cx="178.3" cy="127.8" r="44"/>
	<circle id="XMLID_1100_" class="st0" cx="178.3" cy="127.8" r="13.3"/>
	<line id="XMLID_1099_" class="st0" x1="178.3" y1="114.4" x2="171.6" y2="84.3"/>
	<line id="XMLID_1098_" class="st0" x1="166.8" y1="121.1" x2="137.3" y2="111.9"/>
	<line id="XMLID_1097_" class="st0" x1="166.8" y1="134.4" x2="144.1" y2="155.3"/>
	<line id="XMLID_1096_" class="st0" x1="178.3" y1="141.1" x2="185.1" y2="171.2"/>
	<line id="XMLID_1095_" class="st0" x1="189.9" y1="134.4" x2="219.3" y2="143.6"/>
	<line id="XMLID_1094_" class="st0" x1="189.9" y1="121.1" x2="212.6" y2="100.2"/>
	<path id="XMLID_1093_" class="st0" d="M101.2,82l36.1-21.6h70.5l28.6,28.6v86.6c0,7.8-6.4,14.2-14.2,14.2H27.8
		c-7.8,0-14.2-6.4-14.2-14.2v-101c0-7.8,6.4-14.2,14.2-14.2H119"/>
</g>
</svg>
