<?xml version="1.0" encoding="utf-8"?>
<!-- Generator: Adobe Illustrator 24.2.3, SVG Export Plug-In . SVG Version: 6.00 Build 0)  -->
<svg version="1.1" id="Layer_1" xmlns="http://www.w3.org/2000/svg" xmlns:xlink="http://www.w3.org/1999/xlink" x="0px" y="0px"
	 viewBox="0 0 250 250" style="enable-background:new 0 0 250 250;" xml:space="preserve">
<style type="text/css">
	.st0{fill:none;stroke:#070606;stroke-width:4.8;stroke-linecap:round;stroke-linejoin:round;stroke-miterlimit:10;}
</style>
<g id="XMLID_978_">
	<path id="XMLID_994_" class="st0" d="M95,162.9c24.9,12.6,56.1,8.5,76.9-12.3c25.9-25.9,25.9-68,0-93.9c-25.9-25.9-68-25.9-93.9,0
		c-23.8,23.8-25.8,61.1-5.9,87.1 M101.6,127.1c-12.9-12.9-12.9-33.9,0-46.8c12.9-12.9,33.9-12.9,46.8,0c12.9,12.9,12.9,33.9,0,46.8
		C135.5,140,114.5,140,101.6,127.1z"/>
	<path id="XMLID_993_" class="st0" d="M136,114.6c-6.1,6.1-15.9,6.1-21.9,0c-6.1-6.1-6.1-15.9,0-21.9c6.1-6.1,15.9-6.1,21.9,0
		C142,98.7,142,108.5,136,114.6z"/>
	<path id="XMLID_992_" class="st0" d="M58.1,39.6c0,1.4-1.2,2.6-2.6,2.6c-1.4,0-2.6-1.2-2.6-2.6c0-1.4,1.2-2.6,2.6-2.6
		C57,37,58.1,38.2,58.1,39.6z"/>
	<path id="XMLID_991_" class="st0" d="M69,174.5c0,1.3-1.1,2.4-2.4,2.4c-1.3,0-2.4-1.1-2.4-2.4c0-1.3,1.1-2.4,2.4-2.4
		C67.9,172.2,69,173.2,69,174.5z"/>
	<path id="XMLID_990_" class="st0" d="M197,39.6c0,1.4-1.2,2.6-2.6,2.6c-1.4,0-2.6-1.2-2.6-2.6c0-1.4,1.2-2.6,2.6-2.6
		C195.9,37,197,38.2,197,39.6z"/>
	<path id="XMLID_989_" class="st0" d="M58.1,210.4c0-1.4-1.2-2.6-2.6-2.6c-1.4,0-2.6,1.2-2.6,2.6c0,1.4,1.2,2.6,2.6,2.6
		C57,213,58.1,211.8,58.1,210.4z"/>
	<path id="XMLID_988_" class="st0" d="M197,210.4c0-1.4-1.2-2.6-2.6-2.6c-1.4,0-2.6,1.2-2.6,2.6c0,1.4,1.2,2.6,2.6,2.6
		C195.9,213,197,211.8,197,210.4z"/>
	<path id="XMLID_13_" class="st0" d="M198.5,226.4H51.5c-6.6,0-11.9-5.3-11.9-11.9v-179c0-6.6,5.3-11.9,11.9-11.9h147.1
		c6.6,0,11.9,5.3,11.9,11.9v179C210.4,221.1,205.1,226.4,198.5,226.4z"/>
	<path id="XMLID_983_" class="st0" d="M76.4,182.2c-4.2,5.4-12,6.3-17.4,2.1c-5.4-4.2-6.3-12-2.1-17.4c3.4-4.3,26.2-20.6,35.2-26.9
		c1.1-0.8,2.5,0.4,2,1.6C90.2,151.9,79.8,177.9,76.4,182.2z"/>
	<line id="XMLID_982_" class="st0" x1="96.2" y1="226.4" x2="96.2" y2="199.3"/>
	<line id="XMLID_981_" class="st0" x1="115.4" y1="226.4" x2="115.4" y2="208.1"/>
	<line id="XMLID_980_" class="st0" x1="134.6" y1="226.4" x2="134.6" y2="208.1"/>
	<line id="XMLID_979_" class="st0" x1="153.8" y1="226.4" x2="153.8" y2="199.3"/>
</g>
</svg>
