<?xml version="1.0" encoding="utf-8"?>
<!-- Generator: Adobe Illustrator 24.2.3, SVG Export Plug-In . SVG Version: 6.00 Build 0)  -->
<svg version="1.1" id="Layer_1" xmlns="http://www.w3.org/2000/svg" xmlns:xlink="http://www.w3.org/1999/xlink" x="0px" y="0px"
	 viewBox="0 0 250 250" style="enable-background:new 0 0 250 250;" xml:space="preserve">
<style type="text/css">
	.st0{fill:none;stroke:#070606;stroke-width:4.8;stroke-linecap:round;stroke-linejoin:round;stroke-miterlimit:10;}
</style>
<g id="XMLID_1046_">
	<polyline id="XMLID_1055_" class="st0" points="152.6,34.6 152.6,201.9 137.7,211.1 125,211.1 112.3,211.1 97.4,201.9 97.4,34.6 	
		"/>
	<path id="XMLID_1054_" class="st0" d="M152.6,231.6L180,217v-80.8V23.5c0-2.8-2.3-5.2-5.2-5.2h-22.3l-77.4,0
		c-2.8,0-5.2,2.3-5.2,5.2v112.7V217l27.4,14.6"/>
	<line id="XMLID_1053_" class="st0" x1="97.4" y1="231.6" x2="152.6" y2="231.6"/>
	<line id="XMLID_1052_" class="st0" x1="97.4" y1="59.4" x2="152.6" y2="59.4"/>
	<line id="XMLID_1051_" class="st0" x1="97.4" y1="78" x2="152.6" y2="78"/>
	<line id="XMLID_1050_" class="st0" x1="97.4" y1="96.5" x2="152.6" y2="96.5"/>
	<line id="XMLID_1049_" class="st0" x1="97.4" y1="115.1" x2="152.6" y2="115.1"/>
	<path id="XMLID_1048_" class="st0" d="M133,148.6c3.1,2.4,5,6.1,5,10.3c0,7.2-5.9,13.1-13.1,13.1c-7.2,0-13.1-5.9-13.1-13.1
		c0-4,1.8-7.6,4.7-10"/>
	<line id="XMLID_1047_" class="st0" x1="125" y1="140.5" x2="125" y2="155.4"/>
</g>
</svg>
