<?xml version="1.0" encoding="utf-8"?>
<!-- Generator: Adobe Illustrator 24.2.3, SVG Export Plug-In . SVG Version: 6.00 Build 0)  -->
<svg version="1.1" id="Layer_1" xmlns="http://www.w3.org/2000/svg" xmlns:xlink="http://www.w3.org/1999/xlink" x="0px" y="0px"
	 viewBox="0 0 250 250" style="enable-background:new 0 0 250 250;" xml:space="preserve">
<style type="text/css">
	.st0{fill:none;stroke:#070606;stroke-width:4.8;stroke-linecap:round;stroke-linejoin:round;stroke-miterlimit:10;}
</style>
<g>
	<path id="XMLID_4_" class="st0" d="M59.2,45.1c2.9,0,5.2-2.3,5.2-5.2v-25h18.8v12.1c0,4.1,3.3,7.4,7.4,7.4l0,0
		c4.1,0,7.4-3.3,7.4-7.4V14.9h30.9v12c0,4.1,3.3,7.4,7.4,7.4h0c4.1,0,7.4-3.3,7.4-7.4v-0.9h18.2"/>
	<line id="XMLID_1176_" class="st0" x1="79" y1="108.9" x2="79" y2="100.3"/>
	<line id="XMLID_1175_" class="st0" x1="92.2" y1="108.9" x2="92.2" y2="100.3"/>
	<line id="XMLID_1174_" class="st0" x1="105.3" y1="108.9" x2="105.3" y2="100.3"/>
	<line id="XMLID_1173_" class="st0" x1="70.5" y1="143.7" x2="61.9" y2="143.7"/>
	<line id="XMLID_1172_" class="st0" x1="70.5" y1="130.6" x2="61.9" y2="130.6"/>
	<line id="XMLID_1171_" class="st0" x1="70.5" y1="117.5" x2="61.9" y2="117.5"/>
	<line id="XMLID_1170_" class="st0" x1="105.3" y1="152.3" x2="105.3" y2="160.9"/>
	<line id="XMLID_1169_" class="st0" x1="92.2" y1="152.3" x2="92.2" y2="160.9"/>
	<line id="XMLID_1168_" class="st0" x1="79" y1="152.3" x2="79" y2="160.9"/>
	<line id="XMLID_1167_" class="st0" x1="113.9" y1="117.5" x2="122.5" y2="117.5"/>
	<line id="XMLID_1166_" class="st0" x1="113.9" y1="130.6" x2="122.5" y2="130.6"/>
	<line id="XMLID_1165_" class="st0" x1="113.9" y1="143.7" x2="122.5" y2="143.7"/>
	<path id="XMLID_1164_" class="st0" d="M89.6,117.5c0,5.8-4.7,10.6-10.6,10.6v15.7h26.3v-26.3H89.6z"/>
	<path id="XMLID_2_" class="st0" d="M157,25.9h61.7c3.9,0,7.1,3.2,7.1,7.1v195.1c0,3.9-3.2,7.1-7.1,7.1H24.2v-190"/>
	<line id="XMLID_3_" class="st0" x1="33.5" y1="45" x2="24.2" y2="45"/>
	<polyline id="XMLID_6_" class="st0" points="199.1,201 199.1,45 49.5,45 	"/>
	<line id="XMLID_5_" class="st0" x1="24.2" y1="215.8" x2="199.1" y2="215.8"/>
	<polyline id="XMLID_30_" class="st0" points="137.5,197.5 137.5,160.4 199.1,160.4 	"/>
	<line id="XMLID_29_" class="st0" x1="137.5" y1="160.4" x2="137.5" y2="45"/>
	<line id="XMLID_28_" class="st0" x1="137.5" y1="65.7" x2="199.1" y2="65.7"/>
	<line id="XMLID_27_" class="st0" x1="137.5" y1="87.4" x2="199.1" y2="87.4"/>
	<line id="XMLID_26_" class="st0" x1="137.5" y1="109.2" x2="199.1" y2="109.2"/>
	<polyline id="XMLID_25_" class="st0" points="24.2,87.4 47.3,87.4 47.3,101.3 32.8,101.3 	"/>
	<polyline id="XMLID_24_" class="st0" points="24.2,144.4 47.3,144.4 47.3,158.3 32.8,158.3 	"/>
	<polyline id="XMLID_23_" class="st0" points="24.2,113.3 47.3,113.3 47.3,134.6 32.8,134.6 	"/>
	<path id="XMLID_22_" class="st0" d="M98.5,45v34.8c0,4.2-3.4,7.6-7.6,7.6h-28"/>
	<line id="XMLID_21_" class="st0" x1="56.5" y1="195.6" x2="89.7" y2="195.6"/>
	<line id="XMLID_20_" class="st0" x1="56.5" y1="180.7" x2="89.7" y2="180.7"/>
</g>
<rect x="34.5" y="14.5" class="st0" width="14" height="42"/>
</svg>
