<?xml version="1.0" encoding="utf-8"?>
<!-- Generator: Adobe Illustrator 24.2.3, SVG Export Plug-In . SVG Version: 6.00 Build 0)  -->
<svg version="1.1" id="Layer_1" xmlns="http://www.w3.org/2000/svg" xmlns:xlink="http://www.w3.org/1999/xlink" x="0px" y="0px"
	 viewBox="0 0 250 250" style="enable-background:new 0 0 250 250;" xml:space="preserve">
<style type="text/css">
	.st0{fill:none;stroke:#070606;stroke-width:4.8;stroke-linecap:round;stroke-linejoin:round;stroke-miterlimit:10;}
</style>
<g id="XMLID_826_">
	<path id="XMLID_837_" class="st0" d="M79.2,143.9h-4.5c-3.6,0-6.6-2.9-6.6-6.6V81.9"/>
	<path id="XMLID_836_" class="st0" d="M107.1,71.5c17.7,0,32.1,14.4,32.1,32.1v83.2c0,28.5-23.1,51.6-51.6,51.6h0
		c-28.5,0-51.6-23.1-51.6-51.6v-83.2c0-17.7,14.4-32.1,32.1-32.1"/>
	<path id="XMLID_835_" class="st0" d="M96.1,143.6h4.5c3.6,0,6.6-2.9,6.6-6.6V81.9"/>
	<path id="XMLID_9_" class="st0" d="M91.6,123.9h-7.9c-2.5,0-4.5-2-4.5-4.5V94.6c0-2.5,2-4.5,4.5-4.5h7.9c2.5,0,4.5,2,4.5,4.5v24.9
		C96.1,121.9,94.1,123.9,91.6,123.9z"/>
	<path id="XMLID_833_" class="st0" d="M87.6,90.1V53.3c0-14.9,12-26.9,26.9-26.9h33.7"/>
	<line id="XMLID_832_" class="st0" x1="87.6" y1="123.9" x2="87.6" y2="222.2"/>
	<line id="XMLID_831_" class="st0" x1="107.1" y1="71.5" x2="96.9" y2="71.5"/>
	<line id="XMLID_830_" class="st0" x1="68.1" y1="71.5" x2="78.3" y2="71.5"/>
	<g id="XMLID_827_">
		<path id="XMLID_829_" class="st0" d="M162.2,18.3h-11c-1.6,0-2.9,1.3-2.9,2.9v5.2v5.2c0,1.6,1.3,2.9,2.9,2.9h11l6.8,5.7
			c0.8,0.7,1.9,1.1,3,1.1h27.4c1.2,0,2.2-1,2.2-2.2V13.8c0-1.2-1-2.2-2.2-2.2H172c-1.1,0-2.2,0.4-3,1.1L162.2,18.3z"/>
		<polyline id="XMLID_828_" class="st0" points="201.6,19.6 214,19.6 214,33.3 201.6,33.3 		"/>
	</g>
</g>
</svg>
