<?xml version="1.0" encoding="utf-8"?>
<!-- Generator: Adobe Illustrator 24.2.3, SVG Export Plug-In . SVG Version: 6.00 Build 0)  -->
<svg version="1.1" id="Layer_1" xmlns="http://www.w3.org/2000/svg" xmlns:xlink="http://www.w3.org/1999/xlink" x="0px" y="0px"
	 viewBox="0 0 250 250" style="enable-background:new 0 0 250 250;" xml:space="preserve">
<style type="text/css">
	.st0{fill:none;stroke:#070606;stroke-width:4.8;stroke-linecap:round;stroke-linejoin:round;stroke-miterlimit:10;}
</style>
<g id="XMLID_838_">
	<g id="XMLID_848_">
		<path id="XMLID_853_" class="st0" d="M217.9,205.7h-52.3v25.9c0,2.3,1.9,4.2,4.2,4.2h43.8c2.3,0,4.2-1.9,4.2-4.2V205.7z"/>
		<g id="XMLID_849_">
			<polyline id="XMLID_852_" class="st0" points="210.9,205.7 210.9,158.7 172.5,158.7 172.5,205.7 			"/>
			<line id="XMLID_851_" class="st0" x1="185.4" y1="172.3" x2="185.4" y2="187.7"/>
			<line id="XMLID_850_" class="st0" x1="198.4" y1="172.3" x2="198.4" y2="187.7"/>
		</g>
	</g>
	<g id="XMLID_844_">
		<path id="XMLID_6_" class="st0" d="M85.7,54.4c0-1.1-0.9-1.9-1.9-1.9c-1.1,0-1.9,0.9-1.9,1.9c0,1.1,0.9,1.9,1.9,1.9
			C84.8,56.3,85.7,55.4,85.7,54.4z"/>
		<path id="XMLID_3_" class="st0" d="M66.3,40c4.4-4.5,10.6-7.3,17.5-7.3c6.8,0,13,2.7,17.5,7.2"/>
		<path id="XMLID_1_" class="st0" d="M53.2,26.9C61,19,71.8,14.2,83.8,14.2c12,0,22.8,4.8,30.6,12.7"/>
	</g>
	<path id="XMLID_843_" class="st0" d="M75.3,141.3h-4.5c-3.6,0-6.6-2.9-6.6-6.6V79.3"/>
	<path id="XMLID_842_" class="st0" d="M64.2,68.9c-17.7,0-32.1,14.4-32.1,32.1v83.2c0,28.5,23.1,51.6,51.6,51.6h0
		c28.5,0,51.6-23.1,51.6-51.6V101c0-17.7-14.4-32.1-32.1-32.1H64.2z"/>
	<path id="XMLID_841_" class="st0" d="M92.2,141h4.5c3.6,0,6.6-2.9,6.6-6.6V79.3"/>
	<path id="XMLID_10_" class="st0" d="M87.7,121.3h-7.9c-2.5,0-4.5-2-4.5-4.5V92c0-2.5,2-4.5,4.5-4.5h7.9c2.5,0,4.5,2,4.5,4.5v24.9
		C92.2,119.3,90.2,121.3,87.7,121.3z"/>
	<line id="XMLID_839_" class="st0" x1="83.8" y1="121.3" x2="83.8" y2="219.6"/>
</g>
</svg>
