<?xml version="1.0" encoding="utf-8"?>
<!-- Generator: Adobe Illustrator 24.2.3, SVG Export Plug-In . SVG Version: 6.00 Build 0)  -->
<svg version="1.1" id="Layer_1" xmlns="http://www.w3.org/2000/svg" xmlns:xlink="http://www.w3.org/1999/xlink" x="0px" y="0px"
	 viewBox="0 0 250 250" style="enable-background:new 0 0 250 250;" xml:space="preserve">
<style type="text/css">
	.st0{fill:#070606;}
</style>
<g id="XMLID_1_">
	<path class="st0" d="M231.1,154.2c-0.1,0-0.1,0-0.2,0c-87.1-6.9-124.7-6.9-211.8,0c-0.7,0-1.3-0.2-1.8-0.6
		c-0.5-0.5-0.8-1.1-0.8-1.8v-118c0-0.7,0.3-1.3,0.8-1.8c0.5-0.5,1.1-0.7,1.8-0.6c87.1,6.9,124.7,6.9,211.8,0
		c0.7-0.1,1.3,0.2,1.8,0.6c0.5,0.5,0.8,1.1,0.8,1.8v118c0,0.7-0.3,1.3-0.8,1.8C232.3,154,231.7,154.2,231.1,154.2z M125,144.3
		c30.7,0,61.3,1.7,103.7,5V36.4c-84.7,6.6-122.7,6.6-207.4,0v112.8C63.7,145.9,94.3,144.3,125,144.3z"/>
	<path class="st0" d="M113.2,190.3c-1.3,0-2.4-1.1-2.4-2.4v-41.2c0-1.3,1.1-2.4,2.4-2.4s2.4,1.1,2.4,2.4v41.2
		C115.6,189.2,114.5,190.3,113.2,190.3z"/>
	<path class="st0" d="M139.3,190.3c-1.3,0-2.4-1.1-2.4-2.4v-41.2c0-1.3,1.1-2.4,2.4-2.4s2.4,1.1,2.4,2.4v41.2
		C141.7,189.2,140.7,190.3,139.3,190.3z"/>
	<path class="st0" d="M52.2,218.5c-0.5,0-1-0.2-1.5-0.5c-0.6-0.5-0.9-1.2-0.9-1.9v-11.7c0-1,0.6-1.9,1.6-2.3L97.1,186v-7.9
		c0-1.3,1.1-2.4,2.4-2.4h13.7c1.3,0,2.4,1.1,2.4,2.4s-1.1,2.4-2.4,2.4h-11.3v7.2c0,1-0.6,1.9-1.6,2.3l-45.6,16.1v6.9l45.2-12.2
		c17.2-4.6,35.6-4.6,52.8,0l45.2,12.2v-6.9L152.2,190c-1-0.3-1.6-1.2-1.6-2.3v-7.2h-11.3c-1.3,0-2.4-1.1-2.4-2.4s1.1-2.4,2.4-2.4
		H153c1.3,0,2.4,1.1,2.4,2.4v7.9l45.6,16.1c1,0.3,1.6,1.2,1.6,2.3v11.7c0,0.7-0.3,1.5-0.9,1.9c-0.6,0.5-1.4,0.6-2.1,0.4l-48.2-13
		c-16.4-4.4-33.9-4.4-50.3,0l-48.2,13C52.6,218.5,52.4,218.5,52.2,218.5z"/>
</g>
</svg>
