<?xml version="1.0" encoding="utf-8"?>
<!-- Generator: Adobe Illustrator 24.2.3, SVG Export Plug-In . SVG Version: 6.00 Build 0)  -->
<svg version="1.1" id="Layer_1" xmlns="http://www.w3.org/2000/svg" xmlns:xlink="http://www.w3.org/1999/xlink" x="0px" y="0px"
	 viewBox="0 0 250 250" style="enable-background:new 0 0 250 250;" xml:space="preserve">
<style type="text/css">
	.st0{fill:none;stroke:#070606;stroke-width:4.8;stroke-linecap:round;stroke-linejoin:round;stroke-miterlimit:10;}
</style>
<g id="XMLID_1023_">
	<path id="XMLID_16_" class="st0" d="M224,201.8H26c-7.8,0-14.1-6.3-14.1-14.1V62.3c0-7.8,6.3-14.1,14.1-14.1h198
		c7.8,0,14.1,6.3,14.1,14.1v125.4C238.1,195.5,231.8,201.8,224,201.8z"/>
	
		<ellipse id="XMLID_1037_" transform="matrix(0.1627 -0.9867 0.9867 0.1627 13.323 265.7909)" class="st0" cx="163.3" cy="125" rx="49.7" ry="49.7"/>
	<line id="XMLID_1036_" class="st0" x1="198.4" y1="160.2" x2="213.8" y2="175.5"/>
	<line id="XMLID_1035_" class="st0" x1="183.1" y1="144.9" x2="190.8" y2="152.7"/>
	<line id="XMLID_1034_" class="st0" x1="182.9" y1="104.4" x2="190.8" y2="96.7"/>
	<line id="XMLID_1033_" class="st0" x1="143.4" y1="144.9" x2="135.7" y2="152.7"/>
	<line id="XMLID_1032_" class="st0" x1="143.6" y1="104.4" x2="135.7" y2="96.7"/>
	<line id="XMLID_1031_" class="st0" x1="112.8" y1="74.6" x2="128.2" y2="89.9"/>
	<line id="XMLID_1030_" class="st0" x1="112.8" y1="175.5" x2="128.1" y2="160.2"/>
	<line id="XMLID_1029_" class="st0" x1="198.5" y1="89.8" x2="213.9" y2="74.5"/>
	
		<ellipse id="XMLID_1028_" transform="matrix(0.7071 -0.7071 0.7071 0.7071 -40.6013 152.071)" class="st0" cx="163.3" cy="125" rx="27.5" ry="27.5"/>
	<g id="XMLID_1025_">
		<line id="XMLID_1027_" class="st0" x1="34.5" y1="82.1" x2="82.3" y2="82.1"/>
		<path id="XMLID_1026_" class="st0" d="M45.2,94.1c0,7.3,5.9,13.1,13.1,13.1c7.3,0,13.1-5.9,13.1-13.1"/>
	</g>
	<polyline id="XMLID_1024_" class="st0" points="66.5,128.1 45.1,149.5 66.5,149.5 46,170 	"/>
</g>
</svg>
