<?xml version="1.0" encoding="utf-8"?>
<!-- Generator: Adobe Illustrator 24.2.3, SVG Export Plug-In . SVG Version: 6.00 Build 0)  -->
<svg version="1.1" id="Layer_1" xmlns="http://www.w3.org/2000/svg" xmlns:xlink="http://www.w3.org/1999/xlink" x="0px" y="0px"
	 viewBox="0 0 250 250" style="enable-background:new 0 0 250 250;" xml:space="preserve">
<style type="text/css">
	.st0{fill:none;stroke:#070606;stroke-width:4.8;stroke-linecap:round;stroke-linejoin:round;stroke-miterlimit:10;}
</style>
<g id="XMLID_997_">
	<circle id="XMLID_1006_" class="st0" cx="125" cy="108.4" r="20"/>
	<path id="XMLID_1003_" class="st0" d="M190.6,163.7c12.6-14.9,20.2-34.2,20.2-55.3c0-47.4-38.4-85.8-85.8-85.8
		c-47.4,0-85.8,38.4-85.8,85.8c0,21.1,7.6,40.4,20.2,55.3 M125,65.6c23.6,0,42.8,19.2,42.8,42.8c0,23.6-19.2,42.8-42.8,42.8
		c-23.6,0-42.8-19.2-42.8-42.8C82.2,84.8,101.4,65.6,125,65.6z"/>
	<rect id="XMLID_1002_" x="47.1" y="186.5" class="st0" width="155.8" height="20.5"/>
	<rect id="XMLID_1001_" x="35.2" y="174.6" class="st0" width="179.5" height="52.8"/>
	<line id="XMLID_1000_" class="st0" x1="205.8" y1="217.5" x2="186.1" y2="217.5"/>
	<line id="XMLID_999_" class="st0" x1="160.4" y1="217.5" x2="166.4" y2="217.5"/>
	<path id="XMLID_998_" class="st0" d="M177.1,217.5c0,0.2-0.2,0.4-0.4,0.4c-0.2,0-0.4-0.2-0.4-0.4c0-0.2,0.2-0.4,0.4-0.4
		C176.9,217.1,177.1,217.3,177.1,217.5z"/>
</g>
</svg>
