<?xml version="1.0" encoding="utf-8"?>
<!-- Generator: Adobe Illustrator 24.2.3, SVG Export Plug-In . SVG Version: 6.00 Build 0)  -->
<svg version="1.1" id="Layer_1" xmlns="http://www.w3.org/2000/svg" xmlns:xlink="http://www.w3.org/1999/xlink" x="0px" y="0px"
	 viewBox="0 0 250 250" style="enable-background:new 0 0 250 250;" xml:space="preserve">
<style type="text/css">
	.st0{fill:none;stroke:#070606;stroke-width:4.8;stroke-linecap:round;stroke-linejoin:round;stroke-miterlimit:10;}
</style>
<g>
	<path id="XMLID_1_" class="st0" d="M60.1,94.7V26c0-7.8,6.3-14.1,14.1-14.1h141.5c7.8,0,14.1,6.3,14.1,14.1v198
		c0,7.8-6.3,14.1-14.1,14.1H74.2c-7.8,0-14.1-6.3-14.1-14.1V120.8"/>
	<g id="XMLID_838_">
		<path id="XMLID_843_" class="st0" d="M53.8,136.5h-3.5c-2.8,0-5.1-2.3-5.1-5.1v-43"/>
		<path id="XMLID_842_" class="st0" d="M45.2,80.3c-13.8,0-24.9,11.1-24.9,24.9v64.6c0,22.1,17.9,40.1,40.1,40.1h0
			c22.1,0,40.1-17.9,40.1-40.1v-64.6c0-13.8-11.1-24.9-24.9-24.9H45.2z"/>
		<path id="XMLID_841_" class="st0" d="M67,136.2h3.5c2.8,0,5.1-2.3,5.1-5.1V88.3"/>
		<path id="XMLID_10_" class="st0" d="M62.5,121h-4.1c-2.5,0-4.5-2-4.5-4.5V99.2c0-2.5,2-4.5,4.5-4.5h4.1c2.5,0,4.5,2,4.5,4.5v17.3
			C67,119,64.9,121,62.5,121z"/>
		<line id="XMLID_839_" class="st0" x1="60.4" y1="121" x2="60.4" y2="197.3"/>
	</g>
</g>
</svg>
