<?xml version="1.0" encoding="utf-8"?>
<!-- Generator: Adobe Illustrator 24.2.3, SVG Export Plug-In . SVG Version: 6.00 Build 0)  -->
<svg version="1.1" id="Layer_1" xmlns="http://www.w3.org/2000/svg" xmlns:xlink="http://www.w3.org/1999/xlink" x="0px" y="0px"
	 viewBox="0 0 250 250" style="enable-background:new 0 0 250 250;" xml:space="preserve">
<style type="text/css">
	.st0{fill:none;stroke:#070606;stroke-width:4.8;stroke-linecap:round;stroke-linejoin:round;stroke-miterlimit:10;}
</style>
<g id="XMLID_1215_">
	<g id="XMLID_1227_">
		<circle id="XMLID_1237_" class="st0" cx="148.3" cy="125" r="61.4"/>
		<circle id="XMLID_1236_" class="st0" cx="148.3" cy="125" r="18.7"/>
		<path id="XMLID_1235_" class="st0" d="M148.3,106.3c0,0,11.9-15.8,0-42.8"/>
		<path id="XMLID_1234_" class="st0" d="M135.1,111.8c0,0-2.7-19.5-30.3-30.3"/>
		<path id="XMLID_1233_" class="st0" d="M129.6,125c0,0-15.8-11.9-42.8,0"/>
		<path id="XMLID_1232_" class="st0" d="M135.1,138.2c0,0-19.5,2.7-30.3,30.3"/>
		<path id="XMLID_1231_" class="st0" d="M148.3,143.7c0,0-11.9,15.8,0,42.8"/>
		<path id="XMLID_1230_" class="st0" d="M161.5,138.2c0,0,2.7,19.5,30.3,30.3"/>
		<path id="XMLID_1229_" class="st0" d="M166.9,125c0,0,15.8,11.9,42.8,0"/>
		<path id="XMLID_1228_" class="st0" d="M161.5,111.8c0,0,19.5-2.7,30.3-30.3"/>
	</g>
	<path id="XMLID_18_" class="st0" d="M224.3,207.5h-152c-3.6,0-6.5-2.9-6.5-6.5V49c0-3.6,2.9-6.5,6.5-6.5h152c3.6,0,6.5,2.9,6.5,6.5
		v152C230.8,204.6,227.9,207.5,224.3,207.5z"/>
	<path id="XMLID_1225_" class="st0" d="M217.2,57.5c0,0.8-0.6,1.4-1.4,1.4c-0.8,0-1.4-0.6-1.4-1.4c0-0.8,0.6-1.4,1.4-1.4
		C216.6,56.1,217.2,56.7,217.2,57.5z"/>
	<path id="XMLID_1224_" class="st0" d="M200.9,42.5v18.8c0,6.1,5,11.1,11.1,11.1h18.8"/>
	<path id="XMLID_1223_" class="st0" d="M82.1,57.5c0,0.8-0.6,1.4-1.4,1.4c-0.8,0-1.4-0.6-1.4-1.4c0-0.8,0.6-1.4,1.4-1.4
		C81.5,56.1,82.1,56.7,82.1,57.5z"/>
	<path id="XMLID_1222_" class="st0" d="M65.8,72.4h18.8c6.1,0,11.1-5,11.1-11.1V42.5"/>
	<path id="XMLID_1221_" class="st0" d="M217.2,192.5c0,0.8-0.6,1.4-1.4,1.4c-0.8,0-1.4-0.6-1.4-1.4c0-0.8,0.6-1.4,1.4-1.4
		C216.6,191.2,217.2,191.8,217.2,192.5z"/>
	<path id="XMLID_1220_" class="st0" d="M230.8,177.6H212c-6.1,0-11.1,5-11.1,11.1v18.8"/>
	<path id="XMLID_1219_" class="st0" d="M82.1,192.5c0,0.8-0.6,1.4-1.4,1.4c-0.8,0-1.4-0.6-1.4-1.4c0-0.8,0.6-1.4,1.4-1.4
		C81.5,191.2,82.1,191.8,82.1,192.5z"/>
	<path id="XMLID_1218_" class="st0" d="M95.7,207.5v-18.8c0-6.1-5-11.1-11.1-11.1H65.8"/>
	<path id="XMLID_1217_" class="st0" d="M65.8,161H51.9c-3.2,0-5.9-2.6-5.9-5.9V89.5c0-3.2,2.6-5.9,5.9-5.9h13.9"/>
	<polyline id="XMLID_1216_" class="st0" points="46,119.7 19.2,119.7 19.2,207.5 	"/>
</g>
</svg>
