<?xml version="1.0" encoding="utf-8"?>
<!-- Generator: Adobe Illustrator 24.2.3, SVG Export Plug-In . SVG Version: 6.00 Build 0)  -->
<svg version="1.1" id="Layer_1" xmlns="http://www.w3.org/2000/svg" xmlns:xlink="http://www.w3.org/1999/xlink" x="0px" y="0px"
	 viewBox="0 0 250 250" style="enable-background:new 0 0 250 250;" xml:space="preserve">
<style type="text/css">
	.st0{fill:none;stroke:#070606;stroke-width:4.8;stroke-linecap:round;stroke-linejoin:round;stroke-miterlimit:10;}
</style>
<g id="XMLID_1061_">
	<rect id="XMLID_1091_" x="64.7" y="64.7" class="st0" width="120.7" height="120.7"/>
	<path id="XMLID_1090_" class="st0" d="M89.6,83.7c-3.2,0-5.8,2.6-5.8,5.8v59.2v11.8c0,3.2,2.6,5.8,5.8,5.8h18c1.5,0,3-0.6,4.1-1.7
		l3.1-3.1c1.1-1.1,2.6-1.7,4.1-1.7h12.3c1.5,0,3,0.6,4.1,1.7l3.1,3.1c1.1,1.1,2.6,1.7,4.1,1.7h18c3.2,0,5.8-2.6,5.8-5.8v-11.8V89.5
		c0-3.2-2.6-5.8-5.8-5.8H89.6z"/>
	<line id="XMLID_1089_" class="st0" x1="64.7" y1="52.8" x2="64.7" y2="38"/>
	<line id="XMLID_1088_" class="st0" x1="84.8" y1="52.8" x2="84.8" y2="38"/>
	<line id="XMLID_1087_" class="st0" x1="104.9" y1="52.8" x2="104.9" y2="38"/>
	<line id="XMLID_1086_" class="st0" x1="125" y1="52.8" x2="125" y2="38"/>
	<line id="XMLID_1085_" class="st0" x1="145.1" y1="52.8" x2="145.1" y2="38"/>
	<line id="XMLID_1084_" class="st0" x1="165.2" y1="52.8" x2="165.2" y2="38"/>
	<line id="XMLID_1083_" class="st0" x1="185.3" y1="52.8" x2="185.3" y2="38"/>
	<line id="XMLID_1082_" class="st0" x1="52.8" y1="185.3" x2="38" y2="185.3"/>
	<line id="XMLID_1081_" class="st0" x1="52.8" y1="165.2" x2="38" y2="165.2"/>
	<line id="XMLID_1080_" class="st0" x1="52.8" y1="145.1" x2="38" y2="145.1"/>
	<line id="XMLID_1079_" class="st0" x1="52.8" y1="125" x2="38" y2="125"/>
	<line id="XMLID_1078_" class="st0" x1="52.8" y1="104.9" x2="38" y2="104.9"/>
	<line id="XMLID_1077_" class="st0" x1="52.8" y1="84.8" x2="38" y2="84.8"/>
	<line id="XMLID_1076_" class="st0" x1="52.8" y1="64.7" x2="38" y2="64.7"/>
	<line id="XMLID_1075_" class="st0" x1="185.3" y1="197.2" x2="185.3" y2="212"/>
	<line id="XMLID_1074_" class="st0" x1="165.2" y1="197.2" x2="165.2" y2="212"/>
	<line id="XMLID_1073_" class="st0" x1="145.1" y1="197.2" x2="145.1" y2="212"/>
	<line id="XMLID_1072_" class="st0" x1="125" y1="197.2" x2="125" y2="212"/>
	<line id="XMLID_1071_" class="st0" x1="104.9" y1="197.2" x2="104.9" y2="212"/>
	<line id="XMLID_1070_" class="st0" x1="84.8" y1="197.2" x2="84.8" y2="212"/>
	<line id="XMLID_1069_" class="st0" x1="64.7" y1="197.2" x2="64.7" y2="212"/>
	<line id="XMLID_1068_" class="st0" x1="197.2" y1="64.7" x2="212" y2="64.7"/>
	<line id="XMLID_1067_" class="st0" x1="197.2" y1="84.8" x2="212" y2="84.8"/>
	<line id="XMLID_1066_" class="st0" x1="197.2" y1="104.9" x2="212" y2="104.9"/>
	<line id="XMLID_1065_" class="st0" x1="197.2" y1="125" x2="212" y2="125"/>
	<line id="XMLID_1064_" class="st0" x1="197.2" y1="145.1" x2="212" y2="145.1"/>
	<line id="XMLID_1063_" class="st0" x1="197.2" y1="165.2" x2="212" y2="165.2"/>
	<line id="XMLID_1062_" class="st0" x1="197.2" y1="185.3" x2="212" y2="185.3"/>
</g>
</svg>
