<?xml version="1.0" encoding="utf-8"?>
<!-- Generator: Adobe Illustrator 24.2.3, SVG Export Plug-In . SVG Version: 6.00 Build 0)  -->
<svg version="1.1" id="Layer_1" xmlns="http://www.w3.org/2000/svg" xmlns:xlink="http://www.w3.org/1999/xlink" x="0px" y="0px"
	 viewBox="0 0 250 250" style="enable-background:new 0 0 250 250;" xml:space="preserve">
<style type="text/css">
	.st0{fill:none;stroke:#070606;stroke-width:4.8;stroke-linecap:round;stroke-linejoin:round;stroke-miterlimit:10;}
</style>
<g id="XMLID_1110_">
	<path id="XMLID_1162_" class="st0" d="M110.6,194.4h118.1v-57.6H128.3c-1.8,0-3.5,0.7-4.7,2l-7.5,7.5c-1.7,1.7-4,2.7-6.5,2.7H94.4
		H79.2c-2.4,0-4.8-1-6.5-2.7l-7.5-7.5c-1.3-1.3-3-2-4.7-2H21.3v57.6h65.4"/>
	<path id="XMLID_1161_" class="st0" d="M86.7,194.4c0-6.6,5.4-12,12-12c6.6,0,12,5.4,12,12"/>
	<g id="XMLID_1155_">
		<line id="XMLID_1160_" class="st0" x1="32.4" y1="184.9" x2="32.4" y2="177.5"/>
		<line id="XMLID_1159_" class="st0" x1="43.1" y1="184.9" x2="43.1" y2="177.5"/>
		<line id="XMLID_1158_" class="st0" x1="53.8" y1="184.9" x2="53.8" y2="177.5"/>
		<line id="XMLID_1157_" class="st0" x1="64.6" y1="184.9" x2="64.6" y2="177.5"/>
		<line id="XMLID_1156_" class="st0" x1="75.3" y1="184.9" x2="75.3" y2="177.5"/>
	</g>
	<g id="XMLID_1149_">
		<line id="XMLID_1154_" class="st0" x1="120.5" y1="184.9" x2="120.5" y2="177.5"/>
		<line id="XMLID_1153_" class="st0" x1="131.2" y1="184.9" x2="131.2" y2="177.5"/>
		<line id="XMLID_1152_" class="st0" x1="141.9" y1="184.9" x2="141.9" y2="177.5"/>
		<line id="XMLID_1151_" class="st0" x1="152.6" y1="184.9" x2="152.6" y2="177.5"/>
		<line id="XMLID_1150_" class="st0" x1="163.3" y1="184.9" x2="163.3" y2="177.5"/>
	</g>
	<g id="XMLID_1144_">
		<line id="XMLID_1148_" class="st0" x1="174" y1="184.9" x2="174" y2="177.5"/>
		<line id="XMLID_1147_" class="st0" x1="184.7" y1="184.9" x2="184.7" y2="177.5"/>
		<line id="XMLID_1146_" class="st0" x1="195.5" y1="184.9" x2="195.5" y2="177.5"/>
		<line id="XMLID_1145_" class="st0" x1="206.2" y1="184.9" x2="206.2" y2="177.5"/>
	</g>
	<g id="XMLID_1142_">
		<line id="XMLID_1143_" class="st0" x1="216.9" y1="184.9" x2="216.9" y2="177.5"/>
	</g>
	<line id="XMLID_1141_" class="st0" x1="32.4" y1="149" x2="60.1" y2="149"/>
	<path id="XMLID_1140_" class="st0" d="M110.6,113.2h118.1V55.6H128.3c-1.8,0-3.5,0.7-4.7,2L116,65c-1.7,1.7-4,2.7-6.5,2.7H94.4
		H79.2c-2.4,0-4.8-1-6.5-2.7l-7.5-7.5c-1.3-1.3-3-2-4.7-2H21.3v57.6h65.4"/>
	<path id="XMLID_1139_" class="st0" d="M86.7,113.2c0-6.6,5.4-12,12-12c6.6,0,12,5.4,12,12"/>
	<g id="XMLID_1133_">
		<line id="XMLID_1138_" class="st0" x1="32.4" y1="103.6" x2="32.4" y2="96.2"/>
		<line id="XMLID_1137_" class="st0" x1="43.1" y1="103.6" x2="43.1" y2="96.2"/>
		<line id="XMLID_1136_" class="st0" x1="53.8" y1="103.6" x2="53.8" y2="96.2"/>
		<line id="XMLID_1135_" class="st0" x1="64.6" y1="103.6" x2="64.6" y2="96.2"/>
		<line id="XMLID_1134_" class="st0" x1="75.3" y1="103.6" x2="75.3" y2="96.2"/>
	</g>
	<g id="XMLID_1119_">
		<line id="XMLID_1131_" class="st0" x1="120.5" y1="103.6" x2="120.5" y2="96.2"/>
		<line id="XMLID_1123_" class="st0" x1="131.2" y1="103.6" x2="131.2" y2="96.2"/>
		<line id="XMLID_1122_" class="st0" x1="141.9" y1="103.6" x2="141.9" y2="96.2"/>
		<line id="XMLID_1121_" class="st0" x1="152.6" y1="103.6" x2="152.6" y2="96.2"/>
		<line id="XMLID_1120_" class="st0" x1="163.3" y1="103.6" x2="163.3" y2="96.2"/>
	</g>
	<g id="XMLID_1114_">
		<line id="XMLID_1118_" class="st0" x1="174" y1="103.6" x2="174" y2="96.2"/>
		<line id="XMLID_1117_" class="st0" x1="184.7" y1="103.6" x2="184.7" y2="96.2"/>
		<line id="XMLID_1116_" class="st0" x1="195.5" y1="103.6" x2="195.5" y2="96.2"/>
		<line id="XMLID_1115_" class="st0" x1="206.2" y1="103.6" x2="206.2" y2="96.2"/>
	</g>
	<g id="XMLID_1112_">
		<line id="XMLID_1113_" class="st0" x1="216.9" y1="103.6" x2="216.9" y2="96.2"/>
	</g>
	<line id="XMLID_1111_" class="st0" x1="32.4" y1="67.7" x2="60.1" y2="67.7"/>
</g>
</svg>
