<?xml version="1.0" encoding="utf-8"?>
<!-- Generator: Adobe Illustrator 24.2.3, SVG Export Plug-In . SVG Version: 6.00 Build 0)  -->
<svg version="1.1" id="Layer_1" xmlns="http://www.w3.org/2000/svg" xmlns:xlink="http://www.w3.org/1999/xlink" x="0px" y="0px"
	 viewBox="0 0 250 250" style="enable-background:new 0 0 250 250;" xml:space="preserve">
<style type="text/css">
	.st0{fill:#070606;}
</style>
<g>
	<path class="st0" d="M31.2,168c-1,0-1.9-0.7-2.1-1.6c-10.7-40,6-74.2,11.4-83.8c0.4-0.7,1.1-1.1,1.9-1.1c0.8,0,1.5,0.4,1.9,1.1
		c1.3,2.4,3.9,5.1,6.5,6.5c0.5,0.3,0.9,0.8,1,1.4c0.1,0.6,0,1.2-0.3,1.7c-10.4,15.5-15.8,40.6-14,64.1c0,0.5-0.1,1-0.4,1.4
		c-1.8,2.5-3.1,5.4-3.8,8.6C33.1,167.2,32.2,167.9,31.2,168L31.2,168L31.2,168z M42.6,87.7c-5.6,10.8-17.1,38.3-11,70.6
		c0.4-0.8,0.9-1.7,1.5-2.4c-1.7-23,3.7-48.2,13.6-64.2C45.3,90.5,43.8,89.1,42.6,87.7z"/>
	<path class="st0" d="M218.8,168c-1,0-1.8-0.7-2.1-1.7c-0.8-3.4-2-6.3-3.8-8.6c-0.3-0.4-0.5-1-0.4-1.5c1.9-23.5-3.6-48.6-14-64.1
		c-0.3-0.5-0.4-1.1-0.3-1.7c0.1-0.6,0.5-1.1,1-1.4c2.4-1.4,5.1-4,6.6-6.5c0.4-0.6,1.1-1.1,1.8-1.1c0.8,0,1.5,0.4,1.9,1.1
		c5.4,9.5,22.1,43.8,11.4,83.8C220.6,167.3,219.8,168,218.8,168L218.8,168z M216.8,155.8c0.6,0.8,1.1,1.6,1.5,2.5
		c6.2-32.3-5.4-59.8-11-70.6c-1.2,1.5-2.7,2.8-4.1,3.9C213.2,107.7,218.5,132.8,216.8,155.8z"/>
	<path class="st0" d="M53.5,94.4c-2,0-4.3-0.9-6.6-2.7c-4.9-3.6-10-10.8-7.1-15C57.9,48.3,89.7,31.4,125,31.4
		c35.3,0,67.1,17,85.2,45.4c2.9,4.3-2.4,11.5-7.3,15c-2.3,1.7-4.6,2.6-6.5,2.6c-1.7,0-3.1-0.7-4.1-1.9
		c-17.2-21.2-40.7-33.1-66.1-33.3c-0.3,0-0.6,0-0.9,0c-25.7,0-49.8,11.9-67.9,33.4C56.6,93.8,55.2,94.4,53.5,94.4z M126.4,54.9
		c26.7,0.3,51.4,12.7,69.4,34.9l0.1,0.1c0.1,0.2,0.4,0.2,0.7,0.2c1.1,0,2.8-1,4-1.8c4.3-3.1,7-8.1,6.2-9.3
		c-17.3-27.2-47.8-43.4-81.6-43.4c-33.8,0-64.4,16.2-81.7,43.4c-0.9,1.2,1.6,5.9,6,9.2c1.6,1.2,3.1,1.8,4.1,1.8
		c0.5,0,0.7-0.2,0.7-0.3c19-22.5,44.3-35,71.3-35L126.4,54.9z"/>
	<path class="st0" d="M68.1,218.6c-6.6,0-13.6-2.5-14.7-8l-6.2-34.4c-1.9-10.4-4.1-22.3-6.2-33.6c-0.6-3.1,0.9-6.2,4.1-8.9
		c4.1-3.4,10.4-5.7,15.7-5.7c1.7,0,3.1,0.2,4.4,0.7c2.6,1,4.3,2.9,4.8,5.5c2.2,11.9,4.4,23.9,6.5,35.5l0.3,1.4
		c2.4,12.6,4.7,25.4,6.7,36.7l0,0.2c0.9,4.9-3,8.8-10.2,10.1C71.5,218.4,69.8,218.6,68.1,218.6z M60.7,132.3c-4.2,0-9.7,2-12.9,4.7
		c-1.4,1.2-3,3-2.6,4.8c2.2,11.7,4.4,23.6,6.3,34l6.2,34.1c0.5,2.6,4.9,4.5,10.6,4.5c1.5,0,2.9-0.1,4.2-0.4c1.2-0.2,7.4-1.6,6.8-5.1
		l0-0.1c-2-11.3-4.4-24.2-6.7-36.7l-0.3-1.8c-1.9-10.8-4.1-22.9-6.3-34.6l0-0.1l-0.1-0.4c-0.2-1.1-0.8-1.8-2-2.2
		C62.8,132.4,61.8,132.3,60.7,132.3z"/>
	<path class="st0" d="M181.9,218.6c-5.1,0-10-1.4-12.7-3.7c-2.2-1.8-3.1-4.3-2.6-6.9l0.6-3.1c2-11.3,4.1-22.6,6.1-33.8
		c2.3-12.1,4.5-24.4,6.8-37l0.1-0.8l0.1,0c0.7-2.2,2.3-3.9,4.7-4.7c1.2-0.4,2.7-0.7,4.4-0.7c5.4,0,11.7,2.3,15.7,5.8
		c3.2,2.7,4.5,5.7,3.9,8.8l-7,38.5c-1.8,9.7-3.6,19.7-5.4,29.6c-0.5,3-2.9,5.3-6.7,6.7C187.5,218.2,184.8,218.6,181.9,218.6z
		 M189.3,132.3c-1.1,0-2.1,0.1-2.9,0.4c-1.2,0.4-1.9,1.1-2.1,2.2l0,0.2c-2.2,12-4.4,24.5-6.7,36.8c-2.2,12.2-4.4,24.5-6.7,36.9
		c-0.2,1.1,0.2,2,1.2,2.9c1.9,1.6,5.8,2.7,9.9,2.7c2.4,0,4.7-0.4,6.5-1c1.6-0.6,3.6-1.7,3.9-3.5c1.8-9.6,3.6-19.3,5.3-28.7l7.2-39.3
		c0.3-1.9-1.2-3.6-2.5-4.8C199,134.3,193.6,132.3,189.3,132.3z"/>
	<path class="st0" d="M46.8,203.2c-0.2,0-0.4,0-0.6-0.1c-8.4-2.7-15.2-11.9-17.3-23.2c-2-11.2,1.1-22.4,7.9-27.9
		c0.4-0.3,0.9-0.5,1.3-0.5c0.3,0,0.5,0,0.7,0.1c0.7,0.3,1.2,0.9,1.4,1.6l8.7,47.5c0.1,0.7-0.1,1.5-0.7,2
		C47.8,203,47.3,203.2,46.8,203.2z M36.8,158.1c-3.7,5.2-5.2,13.1-3.7,21c1.4,7.9,5.6,14.8,10.9,18.2L36.8,158.1z"/>
	<path class="st0" d="M203.2,203.2c-0.5,0-1-0.2-1.4-0.5c-0.6-0.5-0.8-1.3-0.7-2l8.7-47.5c0.1-0.7,0.7-1.4,1.4-1.6
		c0.2-0.1,0.5-0.1,0.7-0.1c0.5,0,1,0.2,1.3,0.5c6.8,5.6,9.9,16.5,7.8,27.9c-2.1,11.3-8.8,20.5-17.2,23.2
		C203.7,203.2,203.5,203.2,203.2,203.2z M206.1,197.3c5.3-3.5,9.4-10.4,10.8-18.2c1.4-7.9,0-15.8-3.7-21L206.1,197.3z"/>
</g>
</svg>
