<?xml version="1.0" encoding="utf-8"?>
<!-- Generator: Adobe Illustrator 24.2.3, SVG Export Plug-In . SVG Version: 6.00 Build 0)  -->
<svg version="1.1" id="Layer_1" xmlns="http://www.w3.org/2000/svg" xmlns:xlink="http://www.w3.org/1999/xlink" x="0px" y="0px"
	 viewBox="0 0 250 250" style="enable-background:new 0 0 250 250;" xml:space="preserve">
<style type="text/css">
	.st0{fill:none;stroke:#070606;stroke-width:4.8;stroke-linecap:round;stroke-linejoin:round;stroke-miterlimit:10;}
</style>
<g id="XMLID_817_">
	<path id="XMLID_825_" class="st0" d="M194,125v64.3h-5.1c-6.4,0-11.6,5.2-11.6,11.6v20.7H72.7v-20.7c0-6.4-5.2-11.6-11.6-11.6H56
		V125V60.7h5.1c6.4,0,11.6-5.2,11.6-11.6V28.4h104.6v20.7c0,6.4,5.2,11.6,11.6,11.6h5.1V125z"/>
	<line id="XMLID_824_" class="st0" x1="93.5" y1="43.5" x2="93.5" y2="58.5"/>
	<line id="XMLID_823_" class="st0" x1="114.5" y1="43.5" x2="114.5" y2="58.5"/>
	<line id="XMLID_822_" class="st0" x1="135.5" y1="43.5" x2="135.5" y2="58.5"/>
	<line id="XMLID_821_" class="st0" x1="156.5" y1="43.5" x2="156.5" y2="58.5"/>
	<path id="XMLID_820_" class="st0" d="M82.9,133.6c0,4.8,3.9,8.6,8.6,8.6c4.8,0,8.6-3.9,8.6-8.6c0-6.7-8.6-8.6-8.6-8.6
		s-8.6-2-8.6-8.6c0-4.8,3.9-8.6,8.6-8.6c4.8,0,8.6,3.9,8.6,8.6"/>
	<path id="XMLID_819_" class="st0" d="M113.5,133.6c0,4.8,3.9,8.6,8.6,8.6s8.6-3.9,8.6-8.6c0-6.7-8.6-8.6-8.6-8.6s-8.6-2-8.6-8.6
		c0-4.8,3.9-8.6,8.6-8.6s8.6,3.9,8.6,8.6"/>
	<path id="XMLID_818_" class="st0" d="M144.5,142.3v-34.6h5.3c9.5,0,17.3,7.7,17.3,17.3v0c0,9.5-7.7,17.3-17.3,17.3H144.5z"/>
</g>
</svg>
