<?xml version="1.0" encoding="utf-8"?>
<!-- Generator: Adobe Illustrator 24.2.3, SVG Export Plug-In . SVG Version: 6.00 Build 0)  -->
<svg version="1.1" id="Layer_1" xmlns="http://www.w3.org/2000/svg" xmlns:xlink="http://www.w3.org/1999/xlink" x="0px" y="0px"
	 viewBox="0 0 250 250" style="enable-background:new 0 0 250 250;" xml:space="preserve">
<style type="text/css">
	.st0{fill:none;stroke:#070606;stroke-width:4.8;stroke-linecap:round;stroke-linejoin:round;stroke-miterlimit:10;}
</style>
<g id="XMLID_1_">
	<g id="XMLID_5_">
		<path id="XMLID_26_" class="st0" d="M126.1,106.3h-18c-3.5,0-6.3-2.8-6.3-6.3v-5.7c0-2.6-2.1-4.6-4.6-4.6H28.8
			c-5.4,0-9.8,4.4-9.8,9.8v107.3c0,5.4,4.4,9.8,9.8,9.8h97.2h97.2c5.4,0,9.8-4.4,9.8-9.8V99.5c0-5.4-4.4-9.8-9.8-9.8H155
			c-2.6,0-4.6,2.1-4.6,4.6v5.7c0,3.5-2.8,6.3-6.3,6.3H126.1z"/>
		<g id="XMLID_19_">
			<rect id="XMLID_25_" x="37" y="127.6" class="st0" width="14.2" height="14.2"/>
			<rect id="XMLID_24_" x="69.8" y="127.6" class="st0" width="14.2" height="14.2"/>
			<rect id="XMLID_23_" x="102.6" y="127.6" class="st0" width="14.2" height="14.2"/>
			<rect id="XMLID_22_" x="135.3" y="127.6" class="st0" width="14.2" height="14.2"/>
			<rect id="XMLID_21_" x="168.1" y="127.6" class="st0" width="14.2" height="14.2"/>
			<rect id="XMLID_20_" x="200.9" y="127.6" class="st0" width="14.2" height="14.2"/>
		</g>
		<g id="XMLID_8_">
			<rect id="XMLID_18_" x="37" y="160.1" class="st0" width="14.2" height="14.2"/>
			<rect id="XMLID_17_" x="69.8" y="160.1" class="st0" width="14.2" height="14.2"/>
			<rect id="XMLID_16_" x="37" y="188" class="st0" width="14.2" height="14.2"/>
			<rect id="XMLID_15_" x="69.8" y="188" class="st0" width="14.2" height="14.2"/>
			<rect id="XMLID_14_" x="102.6" y="160.1" class="st0" width="14.2" height="14.2"/>
			<rect id="XMLID_13_" x="135.3" y="160.1" class="st0" width="14.2" height="14.2"/>
			<rect id="XMLID_12_" x="168.1" y="160.1" class="st0" width="14.2" height="14.2"/>
			<rect id="XMLID_11_" x="200.9" y="160.1" class="st0" width="14.2" height="14.2"/>
			<rect id="XMLID_10_" x="168.1" y="188" class="st0" width="14.2" height="14.2"/>
			<rect id="XMLID_9_" x="200.9" y="188" class="st0" width="14.2" height="14.2"/>
		</g>
		<rect id="XMLID_7_" x="102.6" y="188" class="st0" width="47" height="14.2"/>
		<path id="XMLID_6_" class="st0" d="M126.1,106.3V82.6c0-3.9,3.2-7.1,7.1-7.1h86.3c7.6,0,13.7-6.1,13.7-13.7l0,0
			c0-7.6-6.1-13.7-13.7-13.7H82.6"/>
	</g>
	<g id="XMLID_2_">
		<path id="XMLID_4_" class="st0" d="M68.7,56.3h11c1.6,0,2.9-1.3,2.9-2.9v-5.2V43c0-1.6-1.3-2.9-2.9-2.9h-11l-6.8-5.7
			c-0.8-0.7-1.9-1.1-3-1.1H31.5c-1.2,0-2.2,1-2.2,2.2v25.3c0,1.2,1,2.2,2.2,2.2h27.4c1.1,0,2.2-0.4,3-1.1L68.7,56.3z"/>
		<polyline id="XMLID_3_" class="st0" points="29.3,55 16.9,55 16.9,41.3 29.3,41.3 		"/>
	</g>
</g>
</svg>
