<?xml version="1.0" encoding="utf-8"?>
<!-- Generator: Adobe Illustrator 24.2.3, SVG Export Plug-In . SVG Version: 6.00 Build 0)  -->
<svg version="1.1" id="Layer_1" xmlns="http://www.w3.org/2000/svg" xmlns:xlink="http://www.w3.org/1999/xlink" x="0px" y="0px"
	 viewBox="0 0 250 250" style="enable-background:new 0 0 250 250;" xml:space="preserve">
<style type="text/css">
	.st0{fill:none;stroke:#070606;stroke-width:4.8;stroke-linecap:round;stroke-linejoin:round;stroke-miterlimit:10;}
</style>
<g id="XMLID_1187_">
	<path id="XMLID_1202_" class="st0" d="M227.1,171V211c0,4.6-3.7,8.4-8.4,8.4H31.3c-4.6,0-8.4-3.7-8.4-8.4V171"/>
	<polyline id="XMLID_1201_" class="st0" points="227.1,171 202.1,132.1 125,132.1 	"/>
	<polyline id="XMLID_1200_" class="st0" points="22.9,171 47.9,132.1 114.3,132.1 	"/>
	<path id="XMLID_1199_" class="st0" d="M145.9,195.2c0,1.1-0.9,2-2,2c-1.1,0-2-0.9-2-2c0-1.1,0.9-2,2-2
		C145,193.2,145.9,194.1,145.9,195.2z"/>
	<path id="XMLID_1198_" class="st0" d="M177.1,195.2c0,1.1-0.9,2-2,2c-1.1,0-2-0.9-2-2c0-1.1,0.9-2,2-2
		C176.2,193.2,177.1,194.1,177.1,195.2z"/>
	<path id="XMLID_1197_" class="st0" d="M204.9,195.2c0,1.1-0.9,2-2,2c-1.1,0-2-0.9-2-2c0-1.1,0.9-2,2-2
		C204,193.2,204.9,194.1,204.9,195.2z"/>
	<path id="XMLID_1196_" class="st0" d="M114.3,131.2v-24.7c0-2.3,1.9-4.2,4.2-4.2h12.9c2.3,0,4.2,1.9,4.2,4.2v24.7"/>
	<line id="XMLID_1195_" class="st0" x1="125" y1="102.3" x2="125" y2="48.2"/>
	<path id="XMLID_1194_" class="st0" d="M139.8,39.8c1.2,2.3,1.9,5.2,1.9,8.3c0,3.2-0.8,6.2-2,8.6"/>
	<path id="XMLID_1193_" class="st0" d="M153.7,30.6c2.5,4.9,4,10.9,4,17.3c0,6.7-1.6,12.9-4.3,17.8"/>
	<path id="XMLID_1192_" class="st0" d="M110.2,39.8c-1.2,2.3-1.9,5.2-1.9,8.3c0,3.2,0.8,6.2,2,8.6"/>
	<path id="XMLID_1191_" class="st0" d="M96.3,30.6c-2.5,4.9-4,10.9-4,17.3c0,6.7,1.6,12.9,4.3,17.8"/>
	<line id="XMLID_1190_" class="st0" x1="36.5" y1="171" x2="213.5" y2="171"/>
	<line id="XMLID_1189_" class="st0" x1="36.5" y1="197.2" x2="48.9" y2="197.2"/>
	<line id="XMLID_1188_" class="st0" x1="64.4" y1="197.2" x2="76.8" y2="197.2"/>
</g>
</svg>
