<?xml version="1.0" encoding="UTF-8" standalone="no"?>
<!-- Created with Inkscape (http://www.inkscape.org/) -->

<svg
   xmlns:dc="http://purl.org/dc/elements/1.1/"
   xmlns:cc="http://creativecommons.org/ns#"
   xmlns:rdf="http://www.w3.org/1999/02/22-rdf-syntax-ns#"
   xmlns:svg="http://www.w3.org/2000/svg"
   xmlns="http://www.w3.org/2000/svg"
   xmlns:inkscape="http://www.inkscape.org/namespaces/inkscape"
   version="1.1"
   width="600"
   height="240"
   viewbox="0 0 600 240"
   id="svg2"
   xml:space="preserve"><metadata
     id="metadata8"><rdf:RDF><cc:Work
         rdf:about=""><dc:format>image/svg+xml</dc:format><dc:type
           rdf:resource="http://purl.org/dc/dcmitype/StillImage" /></cc:Work></rdf:RDF></metadata><defs
     id="defs6"><clipPath
       id="clipPath16"><path
         d="M 0,0 792,0 792,612 0,612 0,0 z"
         inkscape:connector-curvature="0"
         id="path18" /></clipPath></defs><g
     transform="matrix(1.25,0,0,-1.25,0,765)"
     id="g10"><g
       id="g12"><g
         clip-path="url(#clipPath16)"
         id="g14"><g
           transform="translate(195,538.0625)"
           id="g20"><path
             d="m 0,0 -0.1,-48.903 15.533,0 0,48.687 c 0,0 0.709,1.771 2.167,1.771 1.458,0 2.333,-1.771 2.333,-1.771 l 0,-48.687 13.942,0 0,50.674 c 0,0 0.125,10.333 -9.25,10.333 -9.375,0 -8.125,-3.916 -10.5,-3.916 -2.375,0 -2.775,3.916 -8.499,3.916 -5.526,0 -5.792,-3.467 -7.959,-3.467 -2.17,0 -2.792,3.467 -2.792,3.467 l -15.208,0 0,-60.792 15.833,0 0,48.688 c 0,0 0.709,1.771 2.167,1.771 C -0.875,1.771 0,0 0,0 l 0,-48.688"
             inkscape:connector-curvature="0"
             id="path22"
             style="fill:#020202;fill-opacity:1;fill-rule:nonzero;stroke:none" /></g><g
           transform="translate(289.7334,489.0747)"
           id="g24"><path
             d="m 0,0 0,48.688 c 0,0 -0.875,1.77 -2.333,1.77 -1.458,0 -2.167,-1.77 -2.167,-1.77 L -4.5,0 l -15.833,0 0,60.792 15.208,0 c 0,0 0.421,-3.067 2.592,-3.067 2.362,0 2.433,3.067 7.959,3.067 5.724,0 9.6,-5.416 9.6,-6.591 l 0.307,-5.729 0,-48.688 -15.433,0 0.1,48.904"
             inkscape:connector-curvature="0"
             id="path26"
             style="fill:#020202;fill-opacity:1;fill-rule:nonzero;stroke:none" /></g><g
           transform="translate(252.625,498.3994)"
           id="g28"><path
             d="m 0,0 c 0,0 -0.625,-1.399 -2.375,-1.399 -1.75,0 -2.375,1.75 -2.375,1.75 l 0,39.25 c 0,0 0.531,1.833 2.375,1.833 C -0.531,41.434 0,39.726 0,39.726 L 0,0 z m -2.375,51.767 c -13.125,-0.208 -16.5,-8.518 -16.5,-11.019 l 0,-27.382 -0.05,-12.358 c 0,-2.501 3.375,-11.111 16.5,-11.32 13.125,-0.208 16,8.28 16,9.895 l 0.05,12.783 0,29.207 c 0,1.614 -2.875,10.403 -16,10.194"
             inkscape:connector-curvature="0"
             id="path30"
             style="fill:#020202;fill-opacity:1;fill-rule:nonzero;stroke:none" /></g><g
           transform="translate(414.459,524.75)"
           id="g32"><path
             d="m 0,0 0,12.467 c 0,0 -0.875,1.771 -2.332,1.771 -1.459,0 -2.168,-1.771 -2.168,-1.771 l 0,-48.688 -15.833,0 0,60.792 15.208,0 c 0,0 0.422,-3.067 2.592,-3.067 2.168,0 2.433,3.067 7.96,3.067 5.723,0 9.599,-5.416 9.599,-6.591 l 0.308,-5.729 0,-12.376 L 0,0 z"
             inkscape:connector-curvature="0"
             id="path34"
             style="fill:#020202;fill-opacity:1;fill-rule:nonzero;stroke:none" /></g><path
           d="m 308.25,549.321 13.25,0 0,-60.462 -13.25,0 0,60.462 z"
           inkscape:connector-curvature="0"
           id="path36"
           style="fill:#020202;fill-opacity:1;fill-rule:nonzero;stroke:none" /><g
           transform="translate(308.25,563.1665)"
           id="g38"><path
             d="m 0,0 0,-10.917 13.25,0 0,10.917"
             inkscape:connector-curvature="0"
             id="path40"
             style="fill:#020202;fill-opacity:1;fill-rule:nonzero;stroke:none" /></g><g
           transform="translate(331.5,561)"
           id="g42"><path
             d="m 0,0 0,-11.679 -6.75,0 0,-9.488 6.75,0 0.1,-41.681 c 0,0 0.035,-4.082 1.75,-5.901 1.834,-1.943 5.503,-2.626 5.503,-2.626 l 15.272,-0.018 0,10.143 -5.388,-0.068 c 0,0 -1.487,-0.12 -2.612,0.956 -0.538,0.514 -0.55,2.034 -0.55,2.034 l -0.075,4.703 0,32.75 7.75,0 0,9.196 -7.625,0 L 14.125,0 0,0 z"
             inkscape:connector-curvature="0"
             id="path44"
             style="fill:#020202;fill-opacity:1;fill-rule:nonzero;stroke:none" /></g><g
           transform="translate(376.4243,497.8994)"
           id="g46"><path
             d="m 0,0 c 0,0 -0.625,-1.399 -2.375,-1.399 -1.75,0 -2.375,1.75 -2.375,1.75 l 0,39.25 c 0,0 0.531,1.833 2.375,1.833 C -0.531,41.434 0,39.726 0,39.726 L 0,0 z m -2.375,51.767 c -13.125,-0.208 -16.5,-8.518 -16.5,-11.019 l 0,-27.382 -0.05,-12.358 c 0,-2.501 3.375,-11.111 16.5,-11.32 13.125,-0.208 16,8.28 16,9.895 l 0.05,12.783 0,29.207 c 0,1.614 -2.875,10.403 -16,10.194"
             inkscape:connector-curvature="0"
             id="path48"
             style="fill:#020202;fill-opacity:1;fill-rule:nonzero;stroke:none" /></g><g
           transform="translate(125.6665,499.333)"
           id="g50"><path
             d="m 0,0 c -0.333,-2.333 -3.5,-2.5 -4.833,-2.333 -1.333,0.167 -5.667,-1.334 -7,-1.5 -1.333,-0.167 -7.5,-1.5 -7.834,-2.334 C -20,-7 -23.5,-8.333 -25.333,-8.333 c -1.833,0 -6.167,-2 -8.5,-1.167 -2.333,0.833 -4.521,13.417 -4.584,14.417 -0.062,1 -2.5,4.937 -2.687,6.125 -0.188,1.187 -1.688,6.75 -1.625,7.875 0.062,1.125 1.875,3.562 2.875,4.812 1,1.25 4.5,2 5.25,2.25 0.75,0.25 3.437,2.021 5.104,2.521 1.667,0.5 3.833,1.833 3.667,2.333 -0.167,0.5 3.166,2 4.666,1.667 1.5,-0.333 6.667,2.5 9.334,2.333 0,0 0.833,0.5 3.5,-1.5 2.667,-2 2.666,-5.5 3.5,-7.5 0.833,-2 2.333,-4.666 3.333,-6.039 1,-1.373 -1.167,-7.127 0,-8.461 C -0.333,10 0.333,2.333 0,0 m 28.208,9.667 c -1.375,0.75 -4.625,0.125 -6.125,-0.5 -1.5,-0.625 -5.25,-4.375 -8.625,-4.125 -3.375,0.25 -3,4.75 -2.5,5.75 0.5,1 -1.125,7.5 -1.125,8.875 0,1.375 -3.25,8.5 -2.875,10.625 0.375,2.125 -2.625,4.875 -2.375,7.125 0.25,2.25 2,5 3.125,5.625 1.125,0.625 4,2.625 4.125,4.5 0.125,1.875 -1.125,4.5 -2.625,4.5 -1.5,0 -4,-2.125 -5.875,-2.125 -1.875,0 -3.375,1.375 -4.375,5.75 -1,4.375 -3.25,7.25 -6,7.375 -2.75,0.125 -8.375,-6.375 -8.375,-9.25 0,-2.875 2.125,-5.5 1.875,-6.5 -0.25,-1 -1.5,-4.25 -3.125,-4.375 -1.625,-0.125 -6,-1.375 -5.875,-2 0.125,-0.625 -4.5,-2.125 -5.625,-2.125 -1.125,0 -5.375,-1.375 -6.625,-1.375 -1.25,0 -4,-3.5 -5.875,-3.375 -1.875,0.125 -6.885,2.754 -7.625,2.5 -1.423,-0.49 -7.625,-5.25 -9.125,-6.875 -1.5,-1.625 -6.125,-9.75 -4.625,-11.25 1.5,-1.5 6.081,-0.875 6.728,-1.125 0.647,-0.25 1.647,-3 1.522,-5.25 -0.125,-2.25 0.75,-2.75 1.375,-2.75 0.625,0 1.125,-2.25 1.25,-2.75 0.125,-0.5 1.25,-3.875 1.25,-5 0,-0.848 1.164,-1.977 1.334,-2.125 0.402,-0.35 0.833,-3.748 0.833,-4.373 0,-0.625 0.583,-1.252 1.333,-1.877 0.75,-0.625 0.875,-5.75 0,-6.625 -0.875,-0.875 -4,-2.625 -5.375,-2.875 -1.375,-0.25 -2.875,2 -4.75,1.875 -1.875,-0.125 -4.25,-4 -5.25,-5.25 -1,-1.25 -5.231,-7 -4.553,-7.75 0.678,-0.75 3.428,-3.125 6.428,-3.125 3,0 7.125,2.75 8.375,2.75 1.25,0 5.096,1.625 5.736,1.5 0.639,-0.125 2.139,1.5 2.889,1.5 0.75,0 2.125,-1.875 2.625,-2.875 0.5,-1 0.875,-2.875 3.5,-2.875 2.625,0 0.625,4.375 2,4.5 1.375,0.125 2.125,-0.5 3,-0.625 0.875,-0.125 3.375,2.375 4.25,3.125 0.875,0.75 2.375,3.125 3.75,3.375 1.375,0.25 4.25,2.75 5.375,2.875 1.125,0.125 5.167,1.583 6.167,1.583 1,0 3.667,2 4.583,1.917 0.917,-0.084 3.917,1.583 5.584,1.583 1.666,0 2.666,-3.416 2.666,-5.333 0,-1.917 0.084,-3.667 1.084,-3.584 1,0.084 2.25,1.25 2.666,1.167 0.417,-0.083 1.5,-1.333 2.5,-1.5 1,-0.167 2.25,5 2,6.667 -0.25,1.666 1.084,4.318 1.834,4.659 0.75,0.341 1.333,2.924 2.25,3.007 0.916,0.084 3.291,2.084 4.166,1.834 0.875,-0.25 4,1.125 5.375,2.375 1.375,1.25 5.75,5.625 5.75,7.25 0,1.625 1.375,4.625 0,5.375"
             inkscape:connector-curvature="0"
             id="path52"
             style="fill:#1200ff;fill-opacity:1;fill-rule:nonzero;stroke:none" /></g></g></g></g></svg>